<?xml version="1.0" encoding="utf-8"?>
<!-- Generator: Adobe Illustrator 22.1.0, SVG Export Plug-In . SVG Version: 6.00 Build 0)  -->
<svg version="1.1" xmlns="http://www.w3.org/2000/svg" xmlns:xlink="http://www.w3.org/1999/xlink" x="0px" y="0px"
	 viewBox="0 0 1440 900" style="enable-background:new 0 0 1440 900;" xml:space="preserve">
<style type="text/css">
	.st0{fill:url(#SVGID_1_);}
	.st1{opacity:0.32;fill:#FCFCFC;}
	.st2{fill:#0D7753;}
	.st3{fill:#8EC449;}
	.st4{fill:#DCE252;}
</style>
<g id="bg">
	<g>
		<linearGradient id="SVGID_1_" gradientUnits="userSpaceOnUse" x1="0" y1="450" x2="1440" y2="450">
			<stop  offset="1.982887e-07" style="stop-color:#29AFCE"/>
			<stop  offset="1" style="stop-color:#9CCB45"/>
		</linearGradient>
		<rect class="st0" width="1440" height="900"/>
	</g>
</g>
<g id="Layer_2">
	<path class="st1" d="M922.6,773H517.2c-17.3,0-31.3-14-31.3-31.3V316.3c0-17.3,14-31.3,31.3-31.3h405.3c17.3,0,31.3,14,31.3,31.3
		v425.4C953.9,759,939.8,773,922.6,773z"/>
	<g id="Layer_2_1_">
		<g id="Layer_7">
			<path class="st2" d="M676.9,156l-30.8,37.1c-1.5,1.8-2.5,4-2.8,6.4l-6.9,47.3c-1,7-7.5,11.9-14.6,10.9c-2.6-0.4-5.1-1.6-7-3.4
				L582,223.4c-1.8-1.7-4.2-2.9-6.7-3.3l-44.8-7.4c-7-1.2-11.7-7.8-10.6-14.8c0.4-2.2,1.3-4.3,2.8-6.1l30.8-37.1
				c1.5-1.8,2.5-4,2.8-6.4l6.9-47.3c1-7,7.5-11.9,14.6-10.9c2.6,0.4,5.1,1.6,7,3.4l32.8,30.9c1.8,1.7,4.2,2.9,6.7,3.3l44.9,7.4
				c7,1.2,11.7,7.8,10.5,14.8C679.3,152.2,678.4,154.2,676.9,156z"/>
			<path class="st3" d="M637,114.9l2.3,38.7c0.1,2.3,0.9,4.6,2.2,6.5l22.3,32.4c4,5.9,2.5,13.9-3.3,17.9c-1.9,1.3-4.1,2.1-6.4,2.2
				l-36.3,2.4c-2.6,0.2-5,1.1-7.1,2.7l-28.3,22c-5.6,4.4-13.7,3.4-18-2.2c-1.6-2-2.5-4.5-2.7-7.1l-2.3-38.7
				c-0.1-2.3-0.9-4.6-2.2-6.5L535,152.7c-4-5.8-2.6-13.9,3.3-17.9c1.9-1.3,4.2-2.1,6.5-2.3l36.2-2.4c2.6-0.2,5-1.1,7.1-2.7l28.2-22
				c5.6-4.4,13.7-3.4,18.1,2.3C635.9,109.8,636.8,112.3,637,114.9z"/>
			<path class="st4" d="M643.8,166l-13.6,17.1c-1.5,1.9-2.4,4.1-2.7,6.4l-2.5,20.7c-0.9,7.1-7.3,12.1-14.4,11.2
				c-2.6-0.3-5-1.4-7-3.2l-14.1-12.5c-1.9-1.7-4.3-2.8-6.8-3.1l-19.6-2.7c-7-0.9-12-7.4-11-14.5c0.3-2.3,1.2-4.5,2.7-6.3l13.5-17.2
				c1.5-1.9,2.4-4.1,2.7-6.4l2.5-20.7c0.9-7,7.3-12.1,14.3-11.2c2.6,0.3,5.1,1.4,7,3.2l14,12.5c1.9,1.7,4.3,2.8,6.8,3.2l19.6,2.7
				c7,0.9,12,7.3,11.1,14.4C646.2,162,645.3,164.2,643.8,166z"/>
			<path class="st2" d="M701.6,178l-5.9,3.3c-0.9-1-2-1.9-3.3-2.4c-1.2-0.5-2.5-0.7-3.8-0.7c-2.4-0.1-4.7,0.7-6.5,2.4
				c-1.7,1.6-2.6,3.8-2.5,6.1c-0.1,2.2,0.8,4.4,2.4,5.9c1.7,1.6,3.9,2.4,6.2,2.3c2.9,0.1,5.6-1.1,7.4-3.3l5.6,3.8
				c-3.1,4-7.9,6.2-12.9,5.9c-5,0-8.9-1.5-11.7-4.4c-5.7-5.7-5.7-15,0-20.8c1.1-1.1,2.3-2,3.6-2.6c2.5-1.3,5.4-2,8.2-2
				c2.6,0,5.2,0.5,7.6,1.7C698.3,174.3,700.2,176,701.6,178z"/>
			<path class="st2" d="M722.4,171.6c2.6,0,5.2,0.7,7.5,2c2.3,1.3,4.2,3.2,5.5,5.4c1.3,2.3,2,4.8,2,7.4c0,2.7-0.7,5.3-2,7.5
				c-1.3,2.3-3.2,4.2-5.4,5.5c-2.3,1.3-4.9,2-7.5,1.9c-3.9,0.1-7.7-1.5-10.4-4.3c-5.8-5.9-5.7-15.5,0.2-21.3
				c0.1-0.1,0.2-0.2,0.4-0.3C715.3,173,718.8,171.6,722.4,171.6z M722.5,178.3c-2.1-0.1-4.1,0.8-5.5,2.3c-1.5,1.6-2.3,3.7-2.2,5.9
				c-0.1,2.2,0.7,4.4,2.2,6c3,3.1,8,3.1,11,0.1c0,0,0,0,0.1-0.1c2.9-3.4,2.9-8.5,0-11.9C726.6,179.1,724.6,178.2,722.5,178.3
				L722.5,178.3z"/>
			<path class="st2" d="M744.3,172.3h7.1v2.9c1.3-1.2,2.8-2.1,4.4-2.8c1.3-0.5,2.6-0.8,4-0.8c2.7,0,5.3,1,7.2,2.9
				c1.8,2,2.7,4.7,2.5,7.4v18.8h-7v-12.4c0.1-2.3-0.1-4.5-0.5-6.7c-0.2-1-0.8-1.9-1.6-2.5c-0.8-0.6-1.8-0.9-2.8-0.9
				c-1.4,0-2.7,0.5-3.7,1.4c-1.1,1.1-1.9,2.5-2.1,4c-0.3,1.9-0.4,3.8-0.3,5.8v11.4h-7.1L744.3,172.3z"/>
			<path class="st2" d="M777.4,172.3h7.1v2.9c1.3-1.2,2.8-2.1,4.4-2.8c1.3-0.5,2.6-0.8,4-0.8c2.7,0,5.3,1,7.1,2.9
				c1.8,2,2.7,4.7,2.5,7.4v18.8h-7v-12.4c0.1-2.3-0.1-4.5-0.5-6.7c-0.2-1-0.8-1.9-1.6-2.5c-0.8-0.6-1.8-0.9-2.8-0.9
				c-1.4,0-2.7,0.5-3.7,1.4c-1.1,1.1-1.8,2.5-2.1,4c-0.3,1.9-0.4,3.8-0.3,5.8v11.4h-7.1L777.4,172.3z"/>
			<path class="st2" d="M838.9,188.6H816c0.3,1.9,1.2,3.6,2.7,4.8c1.6,1.2,3.5,1.9,5.5,1.8c2.6,0,5-1,6.8-2.8l6,2.8
				c-1.4,2-3.2,3.6-5.3,4.7c-2.3,1.1-4.9,1.6-7.4,1.5c-4,0.2-8-1.4-10.9-4.2c-2.8-2.8-4.3-6.6-4.2-10.5c-0.1-4,1.4-7.9,4.2-10.8
				c2.7-2.8,6.5-4.4,10.5-4.3c4.1-0.2,8,1.4,10.9,4.3c2.9,3.1,4.4,7.1,4.2,11.3L838.9,188.6z M831.8,183c-0.5-1.6-1.4-2.9-2.8-3.9
				c-1.4-1-3.1-1.5-4.8-1.5c-1.9,0-3.7,0.6-5.2,1.7c-1.2,1-2,2.3-2.6,3.7L831.8,183z"/>
			<path class="st2" d="M873.5,178l-5.9,3.3c-0.9-1-2-1.8-3.3-2.4c-1.2-0.5-2.5-0.7-3.8-0.7c-2.4-0.1-4.7,0.7-6.5,2.4
				c-1.6,1.6-2.5,3.8-2.5,6.1c-0.1,2.2,0.8,4.4,2.4,5.9c1.7,1.6,3.9,2.4,6.2,2.3c2.9,0.1,5.6-1.1,7.4-3.3l5.6,3.8
				c-3.1,4-7.9,6.2-12.9,5.9c-5,0-8.9-1.5-11.7-4.4c-5.7-5.7-5.8-15,0-20.8c1.1-1.1,2.3-2,3.6-2.6c2.5-1.3,5.4-2,8.2-2
				c2.6,0,5.2,0.5,7.6,1.7C870.2,174.3,872.1,176,873.5,178z"/>
			<path class="st2" d="M881.8,161.9h7.1v10.4h4.2v6.1h-4.2v22.2h-7.1v-22.2h-3.7v-6.1h3.7V161.9z"/>
			<path class="st2" d="M899,183.2h13.2v6.7H899V183.2z"/>
			<path class="st2" d="M760.2,215h7.1v28.4h-7.1v-3c-1.2,1.2-2.6,2.2-4.2,2.8c-1.4,0.6-3,0.9-4.5,0.9c-3.6,0-7.1-1.5-9.5-4.3
				c-2.7-2.9-4.1-6.7-4-10.6c-0.2-4,1.2-7.8,3.9-10.8c2.4-2.7,5.8-4.2,9.4-4.2c1.6,0,3.3,0.3,4.8,1c1.6,0.7,3,1.7,4.1,2.9V215z
				 M752.7,220.9c-2.1-0.1-4.1,0.8-5.5,2.3c-1.5,1.6-2.3,3.8-2.2,6c-0.1,2.2,0.7,4.4,2.2,6c1.4,1.5,3.4,2.4,5.5,2.4
				c2.1,0,4.1-0.8,5.6-2.3c1.5-1.7,2.3-3.9,2.2-6.1c0.1-2.2-0.7-4.4-2.2-6C756.8,221.6,754.8,220.8,752.7,220.9z"/>
			<path class="st2" d="M776.5,225.9h13.2v6.7h-13.2V225.9z"/>
			<path class="st2" d="M806.1,204.1v14.1c1.2-1.2,2.6-2.2,4.2-2.9c1.5-0.7,3.2-1,4.8-1c3.6,0,7.1,1.5,9.4,4.2
				c2.6,2.9,4,6.8,3.9,10.8c0.1,3.9-1.3,7.7-4,10.6c-2.4,2.7-5.9,4.3-9.5,4.3c-1.6,0-3.1-0.3-4.6-0.9c-1.6-0.7-3-1.6-4.2-2.8v3H799
				v-39.3H806.1z M813.5,220.9c-2.1-0.1-4.1,0.8-5.6,2.3c-1.5,1.6-2.3,3.8-2.2,6c-0.1,2.2,0.7,4.4,2.2,6.1c1.4,1.5,3.5,2.4,5.6,2.3
				c2.1,0,4.1-0.8,5.5-2.4c1.5-1.6,2.3-3.8,2.2-6c0.1-2.2-0.7-4.4-2.2-6C817.6,221.6,815.6,220.8,813.5,220.9z"/>
			<path class="st2" d="M835.3,215h7.2v13.7c-0.1,1.9,0.1,3.7,0.5,5.5c0.3,1,0.9,1.8,1.8,2.4c0.9,0.6,1.9,0.9,3,0.9
				c1.1,0,2.1-0.3,3-0.9c0.9-0.6,1.5-1.5,1.8-2.5c0.4-1.7,0.5-3.5,0.4-5.2V215h7.1v12c0,5-0.4,8.3-1.2,10.2
				c-0.9,2.1-2.3,3.9-4.2,5.1c-2.1,1.3-4.6,1.9-7.1,1.8c-2.7,0.1-5.3-0.6-7.5-2.1c-1.9-1.5-3.3-3.5-4-5.8c-0.7-3.1-1-6.2-0.8-9.3
				L835.3,215z"/>
			<path class="st2" d="M867.6,204.1h7.1v39.3h-7.1V204.1z"/>
			<path class="st2" d="M881.5,204.1h7.1v39.3h-7.1V204.1z"/>
		</g>
	</g>
</g>
</svg>
